<svg width="343" height="480" viewBox="0 0 343 480" fill="none" xmlns="http://www.w3.org/2000/svg">
<path d="M333 321C292.5 252.5 300.167 251.167 288.5 223L296 214C299.5 209.667 309.2 196.6 320 179C330.8 161.4 328.461 131.667 325.942 119C324.607 108.975 313.017 93.4175 314 88.5L325 55C329 36 333 32.5 331 16C327.5 -0.5 312.5 3 312 3C310.8 2.2 285.167 12.3333 272.5 17.5C262.5 22.5 243 33 226 33H179.5C178.7 34.2 168.5 31.8333 163.5 30.5C159 26 106 6.5 93.5 2C83.5 -1.6 80.3333 11.5 80 18.5C78.8333 26.3333 78.9 47.1 88.5 67.5C98.1 87.9 95.8333 92.3333 93.5 92C92.1667 90.8333 88.6 92.7 85 109.5C80.5 130.5 83 151 85 170C86.6 185.2 111 213.333 123 225.5C121.667 227.5 119.1 231.8 119.5 233C120 234.5 102.5 269.5 100.5 273.5C96.5 277 67 339.5 67 363L65.5 370.5L64 366.5L61.5 353.5V309C61.5 309 63.5 272.5 82.5 258C89.5 243.5 92 219.5 61.5 219.5C31.1 224.7 13.8333 260 9 277C-7.8 328.6 4.33334 383.833 12.5 405C32.1 455.4 71.3333 473 88.5 475.5L201 479.5C220 474 262 490 310.5 463C353.7 431 343.5 355 333 321Z" stroke="#FF0000"/>
</svg>
